<svg width="517" height="445" viewBox="0 0 517 445" fill="none" xmlns="http://www.w3.org/2000/svg">
<path fill-rule="evenodd" clip-rule="evenodd" d="M143.995 263.701C146.352 261.857 151.172 255.257 153.698 253.732C159.313 250.341 184.331 243.674 185.145 243.28C186.384 242.68 194.432 240.584 199.121 239.26C210.132 236.15 249.592 216.062 259.993 210.911C261.32 214.921 272.281 232.622 270.401 234.436C264.21 240.408 253.113 247.844 245.942 252.124C240.142 255.585 233.999 258.45 227.797 260.789C220.755 263.444 215.922 266.292 208.905 269.009C202 271.681 210.251 280.041 213.797 281.768C217.774 283.705 223.934 284.689 227.998 286.368C220.843 299.13 214.835 314.618 213.633 329.905C213.344 333.584 210.9 336.957 206.925 335.856C204.874 335.287 185.949 332.394 182.863 331.587C162.262 326.195 125.28 297.961 134.804 269.009C136.985 270.165 141.967 265.287 143.995 263.701Z" fill="#09755A"/>
<path fill-rule="evenodd" clip-rule="evenodd" d="M155.52 110.091C157.059 109.942 161.038 106.414 158.95 104.63C156.843 102.829 155.33 108.863 155.52 110.091ZM75.3515 123.622C75.7537 123.541 75.5781 121.014 74.9448 120.692C72.9457 119.673 72.7769 123.501 72.7281 124.526C72.6673 125.818 72.5262 129.46 74.9568 128.462C76.3368 127.895 75.4806 124.592 75.3515 123.622ZM193.37 135.425C193.316 137.681 197.286 142.017 198.766 139.416C200.011 137.23 193.472 130.936 193.37 135.425ZM53.0128 84.5642C54.1631 87.9313 59.8514 83.3422 60.0628 80.8723C60.4969 75.8139 52.9534 81.1986 53.0128 84.5642ZM100.471 99.082C103.121 98.8322 106.606 94.967 109.161 93.523C110.89 92.5459 115.593 91.3813 116.105 89.1629C116.55 87.2351 108.569 91.3613 107.888 91.7277C104.757 93.4112 101.934 95.3302 100.471 99.082ZM299.343 72.4284C301.455 70.5548 304.022 69.346 306.729 69.4252C308.08 69.4648 310.9 70.4352 311.006 67.7526C311.178 63.3903 299.241 68.7104 297.376 69.5661C298.032 70.5207 298.688 71.4746 299.343 72.4284ZM167.621 242.425C166.072 239.473 163.286 237.766 161.191 235.247C161.958 239.383 160.227 243.061 159.038 246.836C161.899 245.366 164.76 243.895 167.621 242.425ZM436.625 305.358C437.479 302.079 438.334 298.819 439.332 295.59C440.449 291.975 441.004 291.662 438.331 289.134C436.113 293.947 433.894 298.759 431.675 303.572C433.254 304.343 434.902 305.093 436.625 305.358ZM207.002 68.0043C204.064 64.2043 190.297 63.9657 192.001 72.3526C192.595 75.2812 195.98 72.1701 198.1 71.4875C200.205 70.8097 206.163 70.7196 207.002 68.0043ZM206.497 121.804C206.141 120.834 205.43 117.334 204.375 117.058C203.347 116.789 199.291 120.461 198.528 121.021C194.725 123.818 191.017 126.827 187.311 129.792C188.73 129.792 190.019 129.212 191.429 129.199C193.105 129.183 194.308 129.973 195.942 129.522C199.453 128.555 203.529 124.089 206.497 121.804ZM210.302 35.096C210.632 33.3579 227.844 38.5756 229.913 39.531C231.04 40.0506 236.855 43.5196 235.605 38.2913C234.894 35.3135 228.174 33.0435 226.021 32.2274C220.547 30.1537 214.775 28.6786 208.946 29.0207C207.814 29.0867 199.242 29.6544 202.821 33.6088C204.055 34.9706 208.476 34.5414 210.302 35.096ZM214.07 273.903C217.277 275.713 220.551 277.099 223.903 278.515C225.392 279.143 227.712 280.791 229.354 280.377C230.7 280.037 231.131 277.686 231.838 276.112C234.422 270.354 237.508 265.708 241.334 260.961C239.557 259.474 230.539 266.033 228.307 267.001C226.073 267.971 223.965 268.947 221.779 270.105C219.721 271.196 215.659 272.171 214.07 273.903ZM270.851 224.818C275.525 222.391 279.955 218.087 283.788 214.233C288.189 209.808 292.134 205.171 295.356 199.445C293.417 199.559 289.137 206.716 289.089 198.924C289.064 194.949 293.811 191.034 295.284 187.347C291.619 184.972 288.261 199.16 284.056 195.721C280.005 192.407 286.397 181.014 287.628 177.419C285.252 175.605 271.715 195.912 269.755 198.51C268.53 200.137 265.632 202.302 264.94 204.199C264.528 205.329 264.47 208.912 264.669 209.951C265.083 212.124 267.183 214.725 268.118 216.748C269.302 219.309 270.332 221.97 270.851 224.818ZM464.066 298.03C460.024 291.482 464.199 288.627 467.485 283.193C470.114 278.846 472.532 274.055 474.198 269.201C478.365 257.06 482.125 245.773 484.182 232.93C481.35 234.413 479.58 240.06 478.163 243.036C476.258 247.036 474.582 251.234 472.465 255.11C468.502 262.363 464.612 270.099 459.572 276.385C457.288 279.234 455.355 282.439 452.72 285.006C451.516 286.178 449.213 287.141 448.327 288.607C447.49 289.991 448.426 290.877 448.108 292.53C447.782 294.227 446.286 296.035 445.645 297.669C444.802 299.815 444.017 301.966 443.076 304.064C442.05 306.352 441.77 307.548 441.493 309.785C441.191 312.23 442.118 312.483 440.258 314.736C443.629 316.442 447.001 318.148 450.372 319.854C451.509 320.431 452.647 321.006 453.785 321.582C454.025 321.066 454.265 320.55 454.505 320.034C455.431 319.001 456.283 316.454 456.813 315.09C459.028 309.398 461.53 303.683 464.066 298.03ZM138.499 270.546C128.927 299.47 162.566 323.824 183.274 329.211C186.142 329.956 188.941 330.933 191.796 331.734C194.909 332.607 197.674 332.434 200.781 332.799C203.254 333.089 204.432 335.282 206.761 335.886C210.654 336.895 210.416 333.538 210.695 329.94C211.877 314.687 218.66 299.97 225.839 287.242C222.559 285.896 219.31 284.426 216.073 282.952C213.303 281.69 209.061 278.143 206.083 277.955C203.88 277.817 200.524 279.976 198.385 280.923C194.822 282.501 191.249 283.845 187.536 284.92C181.043 286.802 173.818 289.366 167.1 289.561C165.163 289.617 159.85 290.652 158.456 289.279C155.798 286.659 159.487 284.475 161.712 283.54C174.973 277.967 189.052 275.598 202.351 269.885C209.194 266.944 215.966 263.66 222.852 260.763C228.788 258.266 235.006 256.056 240.742 252.984C248.317 248.93 255.926 243.878 262.486 237.927C263.799 236.736 266.55 234.967 267.45 233.242C268.242 231.722 268.143 233.238 267.979 231.395C267.861 230.072 266.45 228.279 265.87 227.029C263.708 222.369 261.754 217.582 260.112 212.65C249.647 217.801 239.692 224.812 229.382 230.317C219.005 235.857 207.299 239.767 196.197 242.884C191.472 244.211 186.04 244.63 181.707 247.252C179.865 248.366 178.045 249.654 176.073 250.299C175.49 251.581 174.917 251.832 174.352 251.052C173.998 250.597 173.541 250.404 172.98 250.475C171.773 250.709 170.543 251.363 169.415 251.865C163.705 254.405 158.238 257.587 152.817 260.832C150.248 262.37 147.613 263.884 145.154 265.64C143.836 266.582 142.655 267.532 141.577 268.824C140.284 270.374 140.592 271.648 138.499 270.546ZM353.913 98.8097C356.332 98.8547 358.537 97.351 361.059 97.4345C365.027 97.5662 368.167 101.096 370.469 104.5C375.025 111.236 373.864 119.361 371.575 126.899C370.48 130.501 368.976 133.959 367.098 137.112C365.435 139.904 362.462 142.544 361.301 145.653C359.387 150.779 363.249 148.599 365.613 147.504C368.586 146.126 371.374 144.414 373.897 142.107C385.144 131.827 393.7 117.538 396.566 101.127C397.965 93.121 397.857 83.7609 392.997 77.226C388.554 71.2506 380.884 69.2981 374.328 70.406C367.241 71.6046 360.818 75.0495 355.047 79.4843C353.371 80.7728 351.836 82.1793 350.262 83.6204C348.197 85.511 346.96 85.5608 347.477 88.524C347.86 90.727 348.906 93.0094 349.579 95.1232C350.84 99.0827 350.38 100.107 353.913 98.8097ZM361.625 167.067L361.136 168.027C364.51 168.211 367.653 164.795 370.529 163.127C374.264 160.96 377.58 158.003 380.853 155.017C386.625 149.75 392.473 143.816 396.769 136.902C406.401 121.404 415.149 101.755 412.521 82.1055C409.688 60.9278 393.548 52.7759 376.35 55.5794C368.6 56.8426 361.681 60.8138 354.744 64.8452C351.248 66.8778 348.298 69.5142 345.094 72.0664C343.432 73.3914 341.916 73.5633 341.807 75.8802C341.726 77.626 344.355 81.5739 345.066 83.156C353.775 72.9602 363.16 64.5256 376.312 64.0044C391.958 63.3844 401.21 80.4103 401.142 96.7142C401.075 112.703 395.066 128.084 385.486 139.575C381.133 144.797 376.982 148.988 371.637 152.799C368.972 154.699 367.007 156.405 364.027 157.666C361.92 158.559 362.139 158.089 361.602 160.328C361.145 162.228 361.611 165.094 361.625 167.067ZM276.608 384.3C276.404 387.181 275.894 390.018 275.326 392.828C275.122 393.838 273.973 397.024 274.175 398.159C274.507 400.034 274.065 398.828 275.496 399.807C276.99 400.828 278.729 400.766 280.364 401.077C281.374 401.268 285.072 403.266 285.694 402.95C286.781 402.399 286.747 400.454 287.94 399.684C289.565 398.633 291.961 399.533 293.495 400.355C297.595 402.55 300.411 407.093 304.378 409.58C311.423 413.995 319.783 416.44 327.643 417.449C331.901 417.995 336.258 418.954 340.463 417.809C343.776 416.907 348.083 416.99 349.884 412.91C333.878 407.859 309.449 401.677 303.121 380.597C299.681 384.177 293.931 382.25 289.774 381.755C285.2 381.212 281.113 381.338 276.93 378.945C276.624 380.826 276.531 382.387 276.608 384.3ZM134.897 253.744C142.431 254.267 149.574 250.175 154.211 243.271C155.352 241.57 156.522 239.834 157.208 237.82C157.356 237.31 157.504 236.799 157.653 236.288C158.372 234.878 158.057 234.213 156.708 234.292C155.949 233.097 154.022 232.695 154.57 230.527C154.983 228.891 156.506 228.865 157.83 228.351C157.171 227.079 156.776 226.441 155.833 225.311C153.38 227.843 148.93 232.812 147.207 226.995C146.379 224.203 147.836 221.534 147.475 218.841C147.326 217.727 146.096 214.881 145.383 214.215C141.585 210.666 136.114 212.135 132.084 214.224C129.307 215.664 128.709 216.339 128.256 219.64C127.796 222.996 127.369 226.351 126.858 229.697C128.525 228.7 128.829 226.547 129.916 224.997C130.323 225.848 130.73 226.699 131.138 227.55C131.712 227.181 132.248 227.2 132.745 227.609C133.549 229.028 133.043 231.132 132.796 232.62C135.477 232.333 136.611 235.767 133.907 237.157C131.106 238.598 129.843 234.67 129.748 232.126C128.703 233.559 127.63 232.792 126.902 233.528C126.174 234.264 125.887 235.798 125.628 237.478C125.202 240.237 124.114 244.219 125.121 246.988C126.617 251.1 131.387 253.24 134.897 253.744ZM353.221 121.665C350.728 125.644 346.478 130.853 345.589 135.66C348.335 133.81 354.14 124.912 355.636 132C356.495 136.069 352.091 140.917 351.009 144.857C355.34 143.222 358.424 138.101 361.126 134.148C364.571 129.109 368.089 122.466 368.969 116.059C369.68 110.873 366.545 106.041 361.888 105.533C359.509 105.272 357.026 105.706 354.727 106.339C353.679 106.627 352.116 106.985 351.181 107.63C350.006 108.439 349.845 110.334 348.739 108.758C347.269 111.937 345.8 115.116 344.33 118.295C345.793 117.686 348.777 115.1 350.376 115.368C352.71 115.758 353.19 119.65 353.221 121.665ZM119.799 43.8304C113.263 44.0515 106.431 45.6488 100.244 48.0232C98.7077 48.6133 92.2256 50.7121 93.5906 53.7546C94.4929 55.7657 99.3576 52.9239 100.828 52.45C107.131 50.4187 113.621 49.0791 120.077 47.8565C121.64 47.5606 126.943 47.5899 127.217 45.2383C127.552 42.3689 121.644 43.8272 119.799 43.8304ZM297.675 371.104C294.133 371.6 290.731 371.414 287.185 370.916C284.201 370.497 281.162 369.095 278.193 369.095C278.193 372.743 277.978 372.766 281.331 373.546C283.671 374.091 286.045 374.398 288.411 374.777C292.575 375.446 297.199 377.322 301.415 376.358C301.312 375.724 300.99 371.45 300.553 371.027C300.307 370.79 298.033 371.107 297.675 371.104ZM240.42 101.213C241.411 101.937 243.688 104.825 244.868 104.876C244.447 101.532 241.196 95.7102 237.463 97.7767C236.548 98.2835 234.626 100.806 235.495 101.92C235.96 102.515 239.206 101.217 240.42 101.213ZM205.882 130.96C205.918 130.378 205.955 129.795 205.992 129.212C204.622 130.137 202.926 130.574 201.953 132.063C203.121 132.658 204.289 133.253 205.458 133.848C205.6 132.885 205.741 131.923 205.882 130.96ZM313.763 219.739C320.235 222.34 326.169 225.814 330.932 231.711C335.05 236.811 336.986 245.795 337.991 252.479C340.478 269.02 335.679 284.351 332.514 300.174C330.909 308.201 328.512 315.925 326.268 323.744C324.308 330.572 322.628 337.723 319.923 344.215C317.63 349.721 314.7 355.148 312.682 360.859C311.597 363.933 309.837 374.479 305.717 371.167C304.593 374.541 304.319 374.254 305.521 376.598C306.391 378.294 309.342 380.65 310.735 382.031C314.446 385.714 319.147 388.749 323.5 391.328C331.474 396.051 340.022 399.584 348.234 403.89C351.865 405.795 355.802 408.046 354.987 413.496C354.304 418.065 352.001 421.53 348.407 423.563C345.034 425.472 340.209 426.946 336.498 427.545C334.296 427.9 333.791 426.849 331.996 426.485C329.998 426.081 327.666 426.863 325.605 426.843C316.352 426.75 308.251 424.078 300.774 417.92C298.102 415.72 294.169 409.75 290.672 409.751C288.885 409.751 289.262 410.997 287.69 411.729C285.749 412.631 282.407 410.928 280.499 410.528C276.435 409.677 272.303 408.812 269.596 404.795C266.671 400.454 267.711 395.077 268.968 390.256C270.385 384.821 272.77 379.308 273.783 373.791C274.03 372.449 274.257 369.948 274.007 368.583C273.617 366.465 271.753 365.201 271.697 362.907C271.68 362.209 272.55 361.289 272.702 360.569C273.038 358.987 272.986 357.346 273.124 355.736C273.371 352.865 273.942 350.113 274.336 347.276C275.23 340.818 276.995 335.058 278.703 328.835C280.36 322.797 281.937 318.302 285.141 313.074C286.8 310.366 292.348 300.718 289.639 297.942C285.93 306.301 281.594 312.821 275.918 319.476C271.577 324.567 267.333 331.411 261.901 335.036C255.927 339.022 248.628 341.367 242.031 343.475C238.894 344.477 236.291 346.7 232.909 347.111C229.243 347.556 225.512 347.031 221.923 346.093C220.912 345.829 217.998 344.047 217.083 344.161C215.736 344.329 213.798 347.084 212.32 347.59C208.722 348.822 206.265 346.469 203.535 344.294C200.573 341.934 199.677 341.347 196.259 341.063C192.072 340.716 188.001 339.022 183.883 337.985C176.643 336.162 170.489 332.468 163.908 328.6C156.365 324.168 149.912 318.055 144.227 310.835C135.868 300.219 124.228 270.803 137.881 260.504C129.843 259.251 122.481 255.223 121.502 244.782C120.99 239.318 121.953 233.267 123.151 228C123.697 225.595 124.348 223.206 124.972 220.826C125.442 220.023 125.691 219.143 125.717 218.187C126.005 216.949 125.59 216.332 124.47 216.338C122.352 213.497 120.761 210.989 120.333 206.955C120.198 205.677 120.078 203.717 120.87 202.63C121.237 202.193 121.679 201.901 122.196 201.755C123.437 201.836 123.787 201.135 123.248 199.651C123.85 197.549 122.957 195.911 125.227 195.033C125.955 195.211 126.679 195.406 127.401 195.616C128.322 196.098 128.921 195.748 129.199 194.571C131.338 193.611 130.351 192.191 133.257 193.427C135.016 194.175 136.689 195.463 137.97 197.032C139.576 195.848 135.923 188.533 135.801 186.199C135.512 180.697 137.494 176.149 140.072 171.63C145.084 162.848 152.08 155.297 158.978 148.503C172.193 135.491 186.074 123.104 200.994 112.738C194.839 107.832 187.649 106.502 180.324 108.782C173.573 110.884 168.1 114.701 161.885 118.041C156.127 121.134 150.016 122.404 148.18 113.964C146.123 104.511 152.685 101.002 158.572 96.7629C157.102 95.5046 152.263 96.4041 150.433 96.5529C146.356 96.8836 142.458 97.9399 138.496 98.874C136.597 99.3213 134.851 99.2207 132.969 99.6592C130.171 100.311 127.249 101.041 124.418 101.97C117.683 104.181 110.998 107.535 105.178 112.056C100.148 115.961 96.6586 121.475 92.6059 126.554C87.9838 132.345 83.5553 138.043 76.7032 140.163C73.4949 141.156 69.7311 142.057 67.4562 138.768C65.3398 135.71 65.222 132.024 65.2914 128.285C65.4443 120.026 68.9212 111.1 72.9654 104.351C77.3554 97.0252 83.2348 92.8296 88.7903 86.9324C80.7607 87.5913 73.0005 92.449 65.6161 95.8063C64.0621 96.5135 62.4933 97.3076 60.9309 97.9617C59.2647 98.6592 58.1609 98.232 56.5648 98.5514C52.9217 99.2811 49.7926 101.043 46.2491 98.2336C39.5449 92.9197 46.2617 82.1093 50.8775 78.7922C57.3067 74.1727 63.8475 70.2828 70.9303 66.9874C67.0958 62.2142 70.3707 55.4023 73.9051 52.016C78.3771 47.7311 84.0714 45.2757 89.46 42.982C93.7216 41.1678 97.9068 39.426 102.334 38.3343C106.988 37.187 112.429 35.434 117.152 35.6021C121.58 35.7598 125.507 34.8644 129.993 34.7212C133.725 34.6021 137.466 34.7051 141.197 34.5941C151.237 34.2964 161.314 35.0736 171.127 35.9022C163.352 9.81148 214.561 17.8688 225.486 21.2768C235.415 24.3742 246.791 27.9672 255.131 35.3165C258.664 38.4292 262.019 41.9683 265.154 45.6C269.779 50.9581 272.339 57.9752 274.785 64.9013C280.99 61.4129 286.923 57.6115 293.712 55.8818C300.172 54.2365 306.789 52.0064 313.287 50.7634C318.227 49.8181 325.398 49.1769 329.556 53.1802C334.071 57.5286 336.424 64.2955 339.12 70.0905C352.065 55.9936 366.504 45.7094 384.961 46.3932C403.022 47.0626 414.898 64.9616 417.088 84.3579C419.499 105.73 411.204 128.063 399.959 144.614C394.917 152.036 389.7 159.204 382.913 164.742C379.547 167.487 375.997 170.494 372.307 172.638C370.467 173.706 368.455 174.671 366.523 175.494C365.651 175.865 364.753 176.237 363.847 176.489C361.257 177.21 361.76 176.248 360.797 178.849C360.016 180.96 360.112 184.594 359.778 186.912C359.396 189.561 359.168 192.246 358.61 194.859C357.643 199.389 356.636 203.807 355.425 208.231C353.132 216.602 350.046 225.039 346.266 232.674C349.472 234.272 353.961 234.433 357.386 234.917C361.094 235.441 364.807 236.542 368.658 237.778C376.375 240.254 383.27 242.344 390.609 246.051C398.226 249.9 405.016 255.647 412.351 260.221C419.097 264.427 425.915 269.695 432.18 274.744C433.67 275.945 434.593 276.989 435.78 278.511C436.993 280.065 437.38 280.369 438.83 281.716C439.484 282.322 441.386 285.385 442.133 285.497C443.47 285.701 443.265 284.555 444.315 282.956C446.507 279.617 449.564 277.03 451.741 273.607C453.557 270.753 455.45 267.862 457.391 265.407C462.087 259.467 465.978 252.883 469.317 245.761C471.055 242.054 472.884 238.525 474.772 235.026C476.65 231.543 479.99 226.945 483.732 227.151C483.431 225.377 482.475 225.081 484.124 223.997C485.187 223.298 487.255 224.424 488.074 225.134C490.241 227.013 490.337 230.659 490.2 233.398C489.848 240.456 488.561 247.423 486.768 254.097C484.612 262.119 481.91 269.197 478.961 276.854C476.613 282.954 473.698 291.02 467.856 293.804C471.779 300.233 469.895 305.472 467.273 312.297C465.356 317.287 462.825 322.443 458.969 325.745C454.623 329.468 449.909 326.31 445.363 323.85C442.618 322.363 434.222 318.856 435.93 314.282C433.832 313.961 432.513 312.213 430.604 311.675C428.583 311.105 428.93 312.047 426.792 312.4C425.152 312.671 422.7 310.986 421.157 310.383C418.578 309.376 416.007 308.344 413.432 307.326C406.184 304.461 399.059 301.641 391.74 299.345C378.122 295.075 364.335 292.653 350.765 288.839C348.045 288.075 345.34 287.337 342.508 286.725C341.923 286.599 338.888 286.405 338.519 285.686C337.874 284.427 339.859 277.381 340.029 275.945C341.148 266.519 340.782 256.2 339.207 246.882C338.552 243.008 335.63 237.992 335.655 234.21C335.672 231.674 337.631 228.904 338.781 226.606C341.625 220.924 344.606 214.786 346.713 208.873C349.939 199.829 351.915 189.62 353.34 179.932C354.082 174.882 354.946 169.407 355.148 164.299C355.302 160.405 355.024 156.32 355.516 152.332C353.638 152.537 350.981 153.653 349.29 152.458C347.154 150.949 346.58 146.643 346.853 144.071C339.539 145.536 339.782 137.576 340.235 131.351C327.016 131.351 343.944 108.809 346.06 103.968C347.031 101.743 347.003 104.243 346.574 100.801C346.385 99.2875 345.484 97.6109 344.974 96.2199C343.863 93.1828 342.662 90.1923 341.379 87.2462C338.669 81.0232 335.599 75.0102 332.248 69.2128C329.232 71.6247 326.513 74.48 323.994 77.5436C325.61 72.6939 330.547 66.6857 328.435 61.1788C326.478 56.0741 319.941 56.4281 316.081 57.3613C305.591 59.8996 295.531 63.5964 285.538 67.8764C288.633 69.9135 293.372 68.3398 296.448 66.7823C300.257 64.853 304.352 62.8289 308.457 61.8071C312.037 60.9157 316.738 61.2198 315.704 66.7533C314.865 71.2369 311.044 75.5548 308.523 78.9073C302.967 86.2936 296.001 92.0114 289.159 97.7243C281.804 103.866 274.717 110.539 267.269 116.502C253.805 127.283 239.329 136.652 225.418 146.715C218.19 151.944 209.999 156.151 202.16 160.027C193.536 164.29 185.268 168.854 176.322 172.221C171.353 174.091 166.429 175.63 161.547 177.758C158.486 179.092 153.157 181.763 151.135 177.804C147.029 169.763 161.889 159.188 165.962 154.271C168.771 157.402 154.917 169.07 156.002 173.63C156.854 177.212 160.149 172.586 161.74 171.609C164.312 170.031 167.357 169.238 169.941 167.437C175.242 163.744 181.527 159.484 182.738 151.85C181.895 150.829 181.906 149.888 182.769 149.025C183.153 148.5 183.458 147.924 183.683 147.296C184.06 146.096 184.212 144.594 184.414 143.322C185.01 139.561 183.512 136.041 184.912 132.361C176.743 139.465 168.89 147.489 161.136 155.179C154.18 162.077 146.922 171.11 144.365 181.403C144.038 182.722 143.494 184.218 143.553 185.61C143.67 188.342 143.907 187.753 145.825 188.632C147.744 189.51 150.537 189.434 152.6 189.528C153.776 189.58 159.028 188.151 157.984 191.113C157.382 192.82 153.741 192.756 152.438 192.913C149.166 193.31 147.392 192.903 148.942 196.973C149.637 198.797 151.044 200.032 152.149 201.444C155.222 205.372 156.891 211.396 159.308 216.011C162.063 221.268 165.09 226.267 168.307 231.164C169.634 233.184 171.409 236.98 173.249 238.422C174.967 239.768 172.945 239.657 175.799 239.11C177.043 238.873 178.171 237.943 179.361 237.611C186.476 235.621 193.79 233.379 201.148 230.924C210.56 227.783 220.437 225.105 229.417 220.582C237.461 216.528 245.446 211.704 253.574 207.599C255.948 206.401 258.319 205.607 260.164 203.402C262.392 200.741 264.235 197.258 266.289 194.398C269.782 189.533 273.002 184.584 276.762 179.973C279.561 176.543 284.521 170.165 288.47 168.796C295.973 166.195 291.956 179.31 290.987 182.625C292.75 183.084 293.677 180.488 295.748 181.235C298.226 182.129 298.482 185.912 298.792 188.282C298.874 188.914 298.13 190.094 298.356 190.657C298.433 190.85 300.051 191.947 300.363 192.455C301.495 194.303 301.272 196.551 300.843 198.543C298.623 208.865 290.731 216.403 284.926 224.017C287.523 223.453 289.448 221.755 291.899 220.913C294.2 220.123 296.513 220.164 298.832 219.938C301.259 219.701 303.592 218.658 306.076 218.605C308.682 218.549 311.178 219.401 313.763 219.739Z" fill="black"/>
<path fill-rule="evenodd" clip-rule="evenodd" d="M39.2479 126.895C37.8166 127.968 37.4131 129.022 37.3637 131.499C37.3439 132.515 37.405 136.305 38.6421 136.161C39.8031 136.027 39.2479 128.198 39.2479 126.895ZM31.854 133.067C32.521 125.128 35.0518 117.057 41.0053 112.11C42.4776 110.887 44.1432 110.93 45.7568 110.158C46.7266 109.695 48.2588 107.539 49.3598 107.794C53.4127 108.735 48.7303 114.916 48.0447 116.541C45.9198 121.578 46.0633 126.004 46.1267 131.438C46.175 135.567 46.9227 142.529 45.1086 146.267C43.1749 150.247 38.9807 147.663 36.6395 145.307C33.6847 142.333 31.4532 137.597 31.854 133.067Z" fill="black"/>
<path fill-rule="evenodd" clip-rule="evenodd" d="M103.001 156.527C103.001 160.957 106.134 157.958 106.022 154.807C105.858 150.168 102.855 153.025 103.001 156.527ZM119.657 132.037C116.228 135.577 113.583 137.562 112.922 143.004C112.422 147.127 112.919 151.209 112.94 155.361C112.976 162.321 108.079 169.639 102.809 161.66C98.9647 155.841 100.344 146.69 103.478 140.842C105.123 137.774 107.472 134.738 110.184 132.826C112.225 131.387 117.964 128.555 119.657 132.037Z" fill="black"/>
<path fill-rule="evenodd" clip-rule="evenodd" d="M71.7699 239.303C71.3722 240.383 70.4391 244.79 72.343 243.793C74.0241 242.912 72.935 239.991 71.7699 239.303ZM61.7088 225.697C61.4148 224.04 61.5346 213.651 64.0281 214.43C65.9866 215.041 66.3102 220.358 67.108 222.209C70.0792 229.101 76.8987 233.394 79.2503 240.507C81.8753 248.451 73.9392 248.698 69.7281 245.481C64.7419 241.671 61.8568 232.345 61.7088 225.697Z" fill="black"/>
<path fill-rule="evenodd" clip-rule="evenodd" d="M55.596 183.099C56.6782 181.422 56.7876 180.526 56.1708 179.043C55.3822 180.027 55.5223 181.434 55.596 183.099ZM56.3791 190.6C50.7378 191.325 50.4554 179.393 51.4216 175.297C52.1909 172.034 53.8449 168.529 55.5476 165.87C55.8915 165.334 59.1532 160.513 59.7926 160.502C62.246 160.458 61.5718 163.639 61.3072 164.823C60.4736 168.554 60.1434 171.673 60.3676 175.811C60.6083 180.237 62.4347 190.747 56.3791 190.6Z" fill="black"/>
<path fill-rule="evenodd" clip-rule="evenodd" d="M312.522 87.2722C304.456 95.0358 296.798 103.441 288.027 110.232C283.735 113.555 279.248 116.496 274.965 119.873C272.784 121.593 270.558 123.133 268.138 124.398C266.001 125.515 264.603 125.66 266.377 123.009C267.562 121.238 270.219 120.003 271.834 118.744C274.32 116.805 276.667 114.654 279.281 112.934C283.89 109.899 288.47 107.45 292.719 103.728C296.49 100.426 300.38 97.2021 303.978 93.6929C305.522 92.1881 310.639 85.279 312.522 87.2722Z" fill="black"/>
<path fill-rule="evenodd" clip-rule="evenodd" d="M312.686 115.306C316.313 118.867 307.237 128.624 305.167 130.835C302.984 133.167 300.58 135.247 298.206 137.313C297.371 138.04 292.812 142.91 291.655 142.517C289.371 141.741 292.369 138.582 293.148 137.758C295.67 135.091 298.244 132.501 300.709 129.762C302.932 127.294 305.339 125.008 307.489 122.46C309.231 120.395 310.694 116.897 312.686 115.306Z" fill="black"/>
<path fill-rule="evenodd" clip-rule="evenodd" d="M43.9246 258.863C42.9774 256.344 41.2811 259.14 42.1411 260.398C42.9544 261.589 43.8034 259.346 43.9246 258.863ZM38.3708 253.889C38.8786 250.185 40.0521 248.127 43.0796 251.288C45.16 253.461 49.344 259.638 48.947 263.005C48.4258 267.422 44.1868 266.169 41.9893 263.859C39.7369 261.492 38.7425 257.173 38.3708 253.889Z" fill="black"/>
<path fill-rule="evenodd" clip-rule="evenodd" d="M45.0052 326.782C41.2964 326.458 38.1324 323.191 36.5573 319.361C35.2322 316.14 33.9779 310.949 38.6335 312.642C41.6677 313.746 53.3646 327.301 45.0052 326.782Z" fill="black"/>
<path fill-rule="evenodd" clip-rule="evenodd" d="M89.9518 305.787C87.0859 306.536 84.2506 304.37 82.4881 301.927C81.3917 300.405 78.8392 295.072 80.1252 292.876C81.9176 289.814 84.624 295.969 85.5575 297.188C87.0218 299.095 91.8097 302.745 89.9518 305.787Z" fill="black"/>
<path fill-rule="evenodd" clip-rule="evenodd" d="M92.5332 222.5C90.2867 221.304 88.2008 219.863 87.2975 217.005C86.7228 215.185 86.2403 209.727 88.7918 209.753C91.743 209.783 98.5015 221.954 92.5332 222.5Z" fill="black"/>
<path fill-rule="evenodd" clip-rule="evenodd" d="M76.7821 165.718C79.7903 165.655 80.5025 167.559 80.9208 170.295C81.2048 172.151 82.5828 178.454 81.1516 179.745C79.1069 181.59 75.8543 177.363 75.1967 175.703C73.8415 172.287 75.7153 168.927 76.7821 165.718Z" fill="black"/>
<path fill-rule="evenodd" clip-rule="evenodd" d="M128.471 354.689C129.936 355.454 133.268 357.15 131.995 359.782C130.664 362.534 126.841 359.859 125.414 358.657C124.816 358.153 121.018 354.857 121.177 353.752C121.512 351.404 126.747 354.469 128.471 354.689Z" fill="black"/>
<path fill-rule="evenodd" clip-rule="evenodd" d="M31.9724 182.814C32.9733 185.69 34.1 195.572 28.8294 190.236C27.2209 188.607 26.9782 186.573 27.5324 184.337C28.3337 181.097 29.4998 181.739 31.9724 182.814Z" fill="black"/>
<path fill-rule="evenodd" clip-rule="evenodd" d="M311.279 146.016C310.112 143.279 312.994 141.514 314.533 139.75C315.539 138.598 319.766 132.35 321.152 132.703C324.003 133.429 312.681 144.795 311.279 146.016Z" fill="black"/>
<path fill-rule="evenodd" clip-rule="evenodd" d="M76.7442 344.229C79.4943 343.723 80.1358 347.229 81.9077 348.757C82.6675 349.412 85.2759 349.989 84.7511 351.38C83.3726 355.034 76.6094 346.686 76.7442 344.229Z" fill="black"/>
<path fill-rule="evenodd" clip-rule="evenodd" d="M99.9668 261.433C101.857 260.525 107.313 265.403 105.746 267.51C103.405 270.663 100.1 263.158 99.9668 261.433Z" fill="black"/>
<path fill-rule="evenodd" clip-rule="evenodd" d="M139.811 332.003C138.433 332.16 132.618 330.063 134.772 327.254C136.285 325.282 140.305 330.218 139.811 332.003Z" fill="black"/>
<path fill-rule="evenodd" clip-rule="evenodd" d="M70.1787 318.527C68.8108 319.155 63.8771 317.864 65.4283 315.405C66.906 313.064 70.1808 316.584 70.1787 318.527Z" fill="black"/>
<path fill-rule="evenodd" clip-rule="evenodd" d="M110.569 329.136C112.169 328.945 113.324 330.052 113.599 331.926C111.598 332.254 110.981 331.707 110.569 329.136Z" fill="black"/>
<path fill-rule="evenodd" clip-rule="evenodd" d="M318.581 57.0681C319.257 57.0715 319.931 57.0756 320.601 57.0791C319.924 57.075 319.253 57.0715 318.581 57.0681Z" fill="black"/>
<path fill-rule="evenodd" clip-rule="evenodd" d="M307.979 218.442C306.968 218.443 305.958 218.445 304.949 218.446C305.959 218.444 306.969 218.443 307.979 218.442Z" fill="black"/>
<path fill-rule="evenodd" clip-rule="evenodd" d="M170.216 29.5508C170.169 30.711 170.123 31.8712 170.075 33.0273C170.121 31.8662 170.168 30.708 170.216 29.5508Z" fill="black"/>
<path fill-rule="evenodd" clip-rule="evenodd" d="M483.075 226.556C483.397 227.845 482.925 228.059 481.658 227.197C482.13 226.983 482.602 226.77 483.075 226.556Z" fill="black"/>
<path fill-rule="evenodd" clip-rule="evenodd" d="M454.395 327.661C454.901 327.664 455.408 327.668 455.909 327.672C455.401 327.668 454.898 327.664 454.395 327.661Z" fill="black"/>
<path fill-rule="evenodd" clip-rule="evenodd" d="M358.467 234.393C357.62 235.133 356.778 235.238 355.942 234.353C356.784 234.367 357.625 234.38 358.467 234.393Z" fill="black"/>
<path fill-rule="evenodd" clip-rule="evenodd" d="M339.566 135.586C339.545 136.553 339.523 137.52 339.501 138.483C339.522 137.515 339.544 136.55 339.566 135.586Z" fill="black"/>
<path fill-rule="evenodd" clip-rule="evenodd" d="M383.206 46.1801C382.365 46.1796 381.522 46.1784 380.682 46.1772C381.524 45.8157 382.365 45.9345 383.206 46.1801Z" fill="black"/>
<path fill-rule="evenodd" clip-rule="evenodd" d="M136.318 34.3907C135.477 34.4475 134.635 34.5043 133.794 34.5611C134.635 34.5043 135.477 34.4475 136.318 34.3907Z" fill="black"/>
<path fill-rule="evenodd" clip-rule="evenodd" d="M157.019 34.5744C156.345 34.509 155.672 34.4429 154.999 34.3774C155.672 34.4429 156.345 34.509 157.019 34.5744Z" fill="black"/>
<path fill-rule="evenodd" clip-rule="evenodd" d="M168.126 35.4927C167.453 35.7806 166.78 35.951 166.106 35.4967C166.78 35.4956 167.453 35.4938 168.126 35.4927Z" fill="black"/>
<path fill-rule="evenodd" clip-rule="evenodd" d="M108.045 37.0793C107.203 37.2757 106.362 37.4721 105.521 37.6668C106.363 37.4721 107.204 37.2757 108.045 37.0793Z" fill="black"/>
<path fill-rule="evenodd" clip-rule="evenodd" d="M340.073 272.91C340.05 273.491 340.027 274.071 340.004 274.648C340.028 274.067 340.05 273.489 340.073 272.91Z" fill="black"/>
<path fill-rule="evenodd" clip-rule="evenodd" d="M61.8337 225.977C61.844 226.364 61.8537 226.751 61.8629 227.135C61.8522 226.747 61.8435 226.362 61.8337 225.977Z" fill="black"/>
<path fill-rule="evenodd" clip-rule="evenodd" d="M486.202 223.898L483.678 223.913C484.517 223.193 485.359 223.285 486.202 223.898Z" fill="black"/>
<path fill-rule="evenodd" clip-rule="evenodd" d="M313.532 219.794C312.858 219.667 312.185 219.539 311.513 219.412C312.185 219.539 312.859 219.667 313.532 219.794Z" fill="black"/>
<path fill-rule="evenodd" clip-rule="evenodd" d="M128.745 354.602C127.903 354.414 127.062 354.225 126.221 354.037L128.745 354.602Z" fill="black"/>
<path fill-rule="evenodd" clip-rule="evenodd" d="M298.661 188.314C298.645 187.734 298.63 187.154 298.615 186.576C298.63 187.156 298.645 187.735 298.661 188.314Z" fill="black"/>
<path fill-rule="evenodd" clip-rule="evenodd" d="M138.843 34.5828C138.338 34.5116 137.833 34.4403 137.328 34.369C137.833 34.4403 138.338 34.5116 138.843 34.5828Z" fill="black"/>
<path fill-rule="evenodd" clip-rule="evenodd" d="M221.644 20.2536C221.139 20.078 220.633 19.9024 220.129 19.7269C220.634 19.9024 221.139 20.078 221.644 20.2536Z" fill="black"/>
<path fill-rule="evenodd" clip-rule="evenodd" d="M281.725 411.068C282.062 411.092 282.401 411.116 282.734 411.139C282.395 411.115 282.06 411.091 281.725 411.068Z" fill="black"/>
<path fill-rule="evenodd" clip-rule="evenodd" d="M49.9834 99.928C50.4903 99.943 50.9971 99.9587 51.498 99.9743C50.9886 99.9587 50.486 99.943 49.9834 99.928Z" fill="black"/>
<path fill-rule="evenodd" clip-rule="evenodd" d="M388.76 46.7458C387.918 46.678 387.077 46.6102 386.235 46.5419C387.078 46.6102 387.918 46.678 388.76 46.7458Z" fill="black"/>
<path fill-rule="evenodd" clip-rule="evenodd" d="M122.687 44.033C121.506 44.0353 120.326 44.0376 119.152 44.0399C120.336 44.0376 121.511 44.0353 122.687 44.033Z" fill="black"/>
<path fill-rule="evenodd" clip-rule="evenodd" d="M361.219 163.398C361.234 164.365 361.251 165.333 361.267 166.296C361.252 165.328 361.237 164.363 361.219 163.398Z" fill="black"/>
<path fill-rule="evenodd" clip-rule="evenodd" d="M299.396 370.852C298.72 370.84 298.046 370.828 297.376 370.815C298.053 370.825 298.724 370.839 299.396 370.852Z" fill="black"/>
<path fill-rule="evenodd" clip-rule="evenodd" d="M371.089 63.8493C372.098 63.7206 373.108 63.592 374.118 63.4634C373.149 64.4472 372.102 63.7925 371.089 63.8493Z" fill="black"/>
<path fill-rule="evenodd" clip-rule="evenodd" d="M293.842 371.155C293.335 371.133 292.829 371.112 292.327 371.091C292.835 371.113 293.339 371.134 293.842 371.155Z" fill="black"/>
<path fill-rule="evenodd" clip-rule="evenodd" d="M276.385 381.263C276.41 382.231 276.436 383.197 276.461 384.16C276.437 383.191 276.41 382.227 276.385 381.263Z" fill="black"/>
<path fill-rule="evenodd" clip-rule="evenodd" d="M353.418 99.4283C354.091 99.3564 354.765 99.2846 355.438 99.2133C354.823 99.7568 354.101 99.4387 353.418 99.4283Z" fill="black"/>
<path fill-rule="evenodd" clip-rule="evenodd" d="M132.784 253.576C133.457 253.719 134.131 253.86 134.804 254.002C134.131 253.86 133.457 253.719 132.784 253.576Z" fill="black"/>
<path fill-rule="evenodd" clip-rule="evenodd" d="M237.8 101.113C238.64 100.291 239.482 100.38 240.324 101.103C239.482 101.106 238.642 101.109 237.8 101.113Z" fill="black"/>
<path fill-rule="evenodd" clip-rule="evenodd" d="M206.208 130.371C206.232 129.985 206.256 129.598 206.281 129.212C206.258 129.599 206.233 129.985 206.208 130.371Z" fill="black"/>
<path fill-rule="evenodd" clip-rule="evenodd" d="M353.155 119.362C353.162 120.136 353.169 120.91 353.176 121.68C353.17 120.904 353.162 120.133 353.155 119.362Z" fill="black"/>
<path fill-rule="evenodd" clip-rule="evenodd" d="M130.403 240.48C131.511 240.912 133.739 242.213 135.03 242.041C136.063 241.902 136.915 240.461 137.912 240.462C140.595 240.466 140.098 244.026 138.801 245.937C135.295 251.107 127.459 245.501 130.403 240.48Z" fill="black"/>
<path fill-rule="evenodd" clip-rule="evenodd" d="M141.356 221.921C145.015 223.005 143.193 232.242 140.116 232.878C136.494 233.626 135.863 226.115 136.578 223.399C138.443 224.67 137.288 229.205 139.638 227.952C141.131 227.154 140.904 223.465 141.356 221.921Z" fill="black"/>
</svg>
